<svg width="35" height="35" viewBox="0 0 35 35" fill="none" xmlns="http://www.w3.org/2000/svg">
<mask id="mask0_4_489" style="mask-type:alpha" maskUnits="userSpaceOnUse" x="0" y="0" width="35" height="35">
<rect width="35" height="35" fill="#D9D9D9"/>
</mask>
<g mask="url(#mask0_4_489)">
<path d="M6.28212 29.8958C5.54541 29.8958 4.92185 29.6406 4.41144 29.1302C3.90102 28.6198 3.64581 27.9962 3.64581 27.2595V21.5104H13.8541V24.0625H21.1458V21.5104H31.3541V27.2595C31.3541 27.9962 31.0989 28.6198 30.5885 29.1302C30.0781 29.6406 29.4545 29.8958 28.7178 29.8958H6.28212ZM16.0416 21.875V18.9583H18.9583V21.875H16.0416ZM3.64581 19.3229V12.1155C3.64581 11.3788 3.90102 10.7552 4.41144 10.2448C4.92185 9.73438 5.54541 9.47917 6.28212 9.47917H12.3958V7.0113C12.3958 6.2746 12.651 5.65104 13.1614 5.14063C13.6719 4.63021 14.2954 4.375 15.0321 4.375H19.9678C20.7045 4.375 21.3281 4.63021 21.8385 5.14063C22.3489 5.65104 22.6041 6.2746 22.6041 7.0113V9.47917H28.7178C29.4545 9.47917 30.0781 9.73438 30.5885 10.2448C31.0989 10.7552 31.3541 11.3788 31.3541 12.1155V19.3229H21.1458V16.7708H13.8541V19.3229H3.64581ZM14.5833 9.47917H20.4166V7.0113C20.4166 6.89901 20.3699 6.7962 20.2763 6.70286C20.1829 6.60929 20.0801 6.5625 19.9678 6.5625H15.0321C14.9198 6.5625 14.817 6.60929 14.7237 6.70286C14.6301 6.7962 14.5833 6.89901 14.5833 7.0113V9.47917Z" fill="#1C1B1F"/>
</g>
</svg>
