<svg width="24" height="24" viewBox="0 0 24 24" fill="none" xmlns="http://www.w3.org/2000/svg">
<mask id="mask0_14_373" style="mask-type:alpha" maskUnits="userSpaceOnUse" x="0" y="0" width="24" height="24">
<rect width="24" height="24" fill="#D9D9D9"/>
</mask>
<g mask="url(#mask0_14_373)">
<path d="M6.30775 21.5C5.80258 21.5 5.375 21.325 5.025 20.975C4.675 20.625 4.5 20.1974 4.5 19.6923V4.30775C4.5 3.80258 4.675 3.375 5.025 3.025C5.375 2.675 5.80258 2.5 6.30775 2.5H14.25L19.5 7.75V10.952C19.1423 11.016 18.808 11.1333 18.497 11.3038C18.1862 11.4742 17.8987 11.6916 17.6345 11.9558L11.6345 17.9307V21.5H6.30775ZM13.827 21.5V18.8577L19.2557 13.4537C19.3801 13.3359 19.5147 13.2501 19.6595 13.1962C19.8045 13.1424 19.9494 13.1155 20.0943 13.1155C20.2494 13.1155 20.401 13.1449 20.549 13.2037C20.697 13.2627 20.83 13.3512 20.948 13.4692L21.873 14.4038C21.9807 14.5283 22.064 14.6629 22.123 14.8077C22.182 14.9526 22.2115 15.0974 22.2115 15.2423C22.2115 15.3871 22.1846 15.5345 22.1308 15.6845C22.0769 15.8345 21.991 15.9717 21.873 16.096L16.4693 21.5H13.827ZM20.0943 16.2078L21.0193 15.2423L20.0943 14.3077L19.1443 15.2578L20.0943 16.2078ZM13.5 8.5H18L13.5 4V8.5Z" fill="white"/>
</g>
</svg>
