<svg width="20" height="20" viewBox="0 0 20 20" fill="none" xmlns="http://www.w3.org/2000/svg">
<mask id="mask0_4_419" style="mask-type:alpha" maskUnits="userSpaceOnUse" x="0" y="0" width="20" height="20">
<rect width="20" height="20" fill="#D9D9D9"/>
</mask>
<g mask="url(#mask0_4_419)">
<path d="M7.35579 10.3685H8.09288V8.70186H9.02246C9.23121 8.70186 9.40628 8.63123 9.54767 8.48998C9.68892 8.34873 9.75954 8.17366 9.75954 7.96477V7.03519C9.75954 6.8263 9.68892 6.65123 9.54767 6.50998C9.40628 6.36873 9.23121 6.29811 9.02246 6.29811H7.35579V10.3685ZM8.09288 7.96477V7.03519H9.02246V7.96477H8.09288ZM10.6089 10.3685H12.2435C12.4524 10.3685 12.6275 10.2979 12.7687 10.1566C12.9101 10.0154 12.9808 9.84033 12.9808 9.63144V7.03519C12.9808 6.8263 12.9101 6.65123 12.7687 6.50998C12.6275 6.36873 12.4524 6.29811 12.2435 6.29811H10.6089V10.3685ZM11.346 9.63144V7.03519H12.2435V9.63144H11.346ZM13.9102 10.3685H14.6475V8.70186H15.641V7.96477H14.6475V7.03519H15.641V6.29811H13.9102V10.3685ZM6.71475 14.5833C6.29378 14.5833 5.93746 14.4375 5.64579 14.1458C5.35413 13.8541 5.20829 13.4978 5.20829 13.0769V3.58977C5.20829 3.1688 5.35413 2.81248 5.64579 2.52081C5.93746 2.22915 6.29378 2.08331 6.71475 2.08331H16.2018C16.6228 2.08331 16.9791 2.22915 17.2708 2.52081C17.5625 2.81248 17.7083 3.1688 17.7083 3.58977V13.0769C17.7083 13.4978 17.5625 13.8541 17.2708 14.1458C16.9791 14.4375 16.6228 14.5833 16.2018 14.5833H6.71475ZM3.79933 17.5C3.37753 17.5 3.02079 17.3541 2.72913 17.0625C2.43746 16.7708 2.29163 16.4141 2.29163 15.9923V5.25644H3.54163V15.9935C3.54163 16.0577 3.56836 16.1164 3.62183 16.1698C3.67517 16.2232 3.73392 16.25 3.79808 16.25H14.5352V17.5H3.79933Z" fill="white"/>
</g>
</svg>
