<svg width="35" height="35" viewBox="0 0 35 35" fill="none" xmlns="http://www.w3.org/2000/svg">
<mask id="mask0_4_506" style="mask-type:alpha" maskUnits="userSpaceOnUse" x="0" y="0" width="35" height="35">
<rect width="35" height="35" fill="#D9D9D9"/>
</mask>
<g mask="url(#mask0_4_506)">
<path d="M6.28212 25.8573C5.54542 25.8573 4.92186 25.6021 4.41144 25.0917C3.90102 24.5813 3.64582 23.9577 3.64582 23.221V8.07698C3.64582 7.34027 3.90102 6.71672 4.41144 6.2063C4.92186 5.69588 5.54542 5.44067 6.28212 5.44067H28.7178C29.4545 5.44067 30.0781 5.69588 30.5885 6.2063C31.0989 6.71672 31.3541 7.34027 31.3541 8.07698V23.221C31.3541 23.9577 31.0989 24.5813 30.5885 25.0917C30.0781 25.6021 29.4545 25.8573 28.7178 25.8573H6.28212ZM2.01941 29.5032V27.3157H32.9806V29.5032H2.01941Z" fill="#25262B"/>
</g>
</svg>
