<svg width="35" height="35" viewBox="0 0 35 35" fill="none" xmlns="http://www.w3.org/2000/svg">
<mask id="mask0_4_501" style="mask-type:alpha" maskUnits="userSpaceOnUse" x="0" y="0" width="35" height="35">
<rect width="35" height="35" fill="#D9D9D9"/>
</mask>
<g mask="url(#mask0_4_501)">
<path d="M10.4887 23.7822H12.6762V5.83337H10.4887V23.7822ZM8.91846 31.3542C7.85898 31.3542 6.95834 30.9834 6.21653 30.2419C5.47497 29.5001 5.10419 28.5994 5.10419 27.5399V7.46014C5.10419 6.40067 5.47497 5.50002 6.21653 4.75822C6.95834 4.01666 7.85898 3.64587 8.91846 3.64587H24.5113V25.9697H8.91846C8.46783 25.9697 8.08405 26.1226 7.7671 26.4283C7.45016 26.7343 7.29169 27.1135 7.29169 27.5658C7.29169 28.0179 7.45016 28.3978 7.7671 28.7055C8.08405 29.013 8.46783 29.1667 8.91846 29.1667H27.7084V6.56254H29.8959V31.3542H8.91846Z" fill="white"/>
</g>
</svg>
