<svg width="20" height="20" viewBox="0 0 20 20" fill="none" xmlns="http://www.w3.org/2000/svg">
<mask id="mask0_4_411" style="mask-type:alpha" maskUnits="userSpaceOnUse" x="0" y="0" width="20" height="20">
<rect width="20" height="20" fill="#D9D9D9"/>
</mask>
<g mask="url(#mask0_4_411)">
<path d="M2.91669 17.0834V14.2629L13.9088 3.27564C14.0347 3.1612 14.1738 3.0728 14.3261 3.01044C14.4784 2.94794 14.6381 2.91669 14.8052 2.91669C14.9723 2.91669 15.1341 2.94634 15.2906 3.00565C15.4473 3.06495 15.586 3.15926 15.7067 3.28856L16.7244 4.31898C16.8537 4.43967 16.9459 4.57856 17.0009 4.73565C17.0559 4.89273 17.0834 5.04981 17.0834 5.2069C17.0834 5.37453 17.0547 5.53447 16.9975 5.68669C16.9403 5.83905 16.8493 5.97821 16.7244 6.10419L5.7371 17.0834H2.91669ZM14.6267 6.4119L15.8334 5.21315L14.7869 4.16669L13.5881 5.37335L14.6267 6.4119Z" fill="white"/>
</g>
</svg>
